<svg xmlns="http://www.w3.org/2000/svg" width="625" height="387" viewBox="0 0 625 387">
  <g id="Group_6" data-name="Group 6" transform="translate(-684 -654)">
    <text id="DUMPLING_FOOD" data-name="DUMPLING  FOOD" transform="translate(684 949)" font-size="60" font-family="ReggaeOne-Regular, Reggae One"><tspan x="23.03" y="70" xml:space="preserve">DUMPLING  FOOD</tspan></text>
    <g id="Group_5" data-name="Group 5" transform="translate(646.915 569.07)">
      <g id="chinese-restaurant-logo-emblem_1447-1486" transform="translate(153.085 84.93)">
        <g id="Group_1" data-name="Group 1" transform="translate(94.685 92.679)">
          <g id="Ellipse_1" data-name="Ellipse 1" transform="translate(0.23 0.391)" fill="none" stroke="#ecd82f" stroke-width="4">
            <circle cx="54.5" cy="54.5" r="54.5" stroke="none"/>
            <circle cx="54.5" cy="54.5" r="52.5" fill="none"/>
          </g>
          <g id="Ellipse_2" data-name="Ellipse 2" transform="translate(20.23 20.391)" fill="none" stroke="#ecd82f" stroke-width="4">
            <circle cx="35" cy="35" r="35" stroke="none"/>
            <circle cx="35" cy="35" r="33" fill="none"/>
          </g>
          <g id="Path_28" data-name="Path 28" transform="translate(10.653 10.653)" fill="none">
            <path d="M44.741,0A44.741,44.741,0,1,1,0,44.741,44.786,44.786,0,0,1,44.741,0Z" stroke="none"/>
            <path d="M 44.74148178100586 4.000007629394531 C 39.23965072631836 4.000007629394531 33.90451431274414 5.076652526855469 28.88428115844727 7.200035095214844 C 24.03329467773438 9.251823425292969 19.67581939697266 12.18998718261719 15.93289947509766 15.93289947509766 C 12.18998718261719 19.67581939697266 9.251823425292969 24.03329467773438 7.200035095214844 28.88428115844727 C 5.076652526855469 33.90451431274414 4.000007629394531 39.23965072631836 4.000007629394531 44.74148178100586 C 4.000007629394531 50.24331283569336 5.076652526855469 55.57844924926758 7.200035095214844 60.59868240356445 C 9.251823425292969 65.44966888427734 12.18998718261719 69.80714416503906 15.93289947509766 73.55006408691406 C 19.67581939697266 77.29297637939453 24.03329467773438 80.23114013671875 28.88428115844727 82.28292846679688 C 33.90451431274414 84.40631103515625 39.23965072631836 85.48295593261719 44.74148178100586 85.48295593261719 C 50.24331283569336 85.48295593261719 55.57844924926758 84.40631103515625 60.59868240356445 82.28292846679688 C 65.44966888427734 80.23114013671875 69.80714416503906 77.29297637939453 73.55006408691406 73.55006408691406 C 77.29297637939453 69.80714416503906 80.23114013671875 65.44966888427734 82.28292846679688 60.59868240356445 C 84.40631103515625 55.57844924926758 85.48295593261719 50.24331283569336 85.48295593261719 44.74148178100586 C 85.48295593261719 39.31609725952148 84.43917083740234 34.04643630981445 82.38059234619141 29.07891082763672 C 80.40402221679688 24.30926513671875 77.59697723388672 20.05301666259766 74.03688049316406 16.42787933349609 C 66.16957092285156 8.413650512695313 55.76559066772461 4.000007629394531 44.74148178100586 4.000007629394531 M 44.74148178100586 7.62939453125e-06 C 57.24475860595703 7.62939453125e-06 68.55015563964844 5.128776550292969 76.891357421875 13.62574005126953 C 84.59455871582031 21.46971130371094 89.48295593261719 32.53472900390625 89.48295593261719 44.74148178100586 C 89.48295593261719 69.45153045654297 69.45153045654297 89.48295593261719 44.74148178100586 89.48295593261719 C 20.03143310546875 89.48295593261719 7.62939453125e-06 69.45153045654297 7.62939453125e-06 44.74148178100586 C 7.62939453125e-06 20.03143310546875 20.03143310546875 7.62939453125e-06 44.74148178100586 7.62939453125e-06 Z" stroke="none" fill="#ecd82f"/>
          </g>
        </g>
        <g id="Group_2" data-name="Group 2" transform="translate(156.47 92.679)">
          <g id="Ellipse_1-2" data-name="Ellipse 1" transform="translate(0.444 0.391)" fill="none" stroke="#ecd82f" stroke-width="4">
            <circle cx="54.5" cy="54.5" r="54.5" stroke="none"/>
            <circle cx="54.5" cy="54.5" r="52.5" fill="none"/>
          </g>
          <g id="Ellipse_2-2" data-name="Ellipse 2" transform="translate(20.444 20.391)" fill="none" stroke="#ecd82f" stroke-width="4">
            <circle cx="35" cy="35" r="35" stroke="none"/>
            <circle cx="35" cy="35" r="33" fill="none"/>
          </g>
          <g id="Path_28-2" data-name="Path 28" transform="translate(10.653 10.653)" fill="none">
            <path d="M44.741,0A44.741,44.741,0,1,1,0,44.741,44.786,44.786,0,0,1,44.741,0Z" stroke="none"/>
            <path d="M 44.74148178100586 4.000007629394531 C 39.23965072631836 4.000007629394531 33.90451431274414 5.076652526855469 28.88428115844727 7.200035095214844 C 24.03329467773438 9.251823425292969 19.67581939697266 12.18998718261719 15.93289947509766 15.93289947509766 C 12.18998718261719 19.67581939697266 9.251823425292969 24.03329467773438 7.200035095214844 28.88428115844727 C 5.076652526855469 33.90451431274414 4.000007629394531 39.23965072631836 4.000007629394531 44.74148178100586 C 4.000007629394531 50.24331283569336 5.076652526855469 55.57844924926758 7.200035095214844 60.59868240356445 C 9.251823425292969 65.44966888427734 12.18998718261719 69.80714416503906 15.93289947509766 73.55006408691406 C 19.67581939697266 77.29297637939453 24.03329467773438 80.23114013671875 28.88428115844727 82.28292846679688 C 33.90451431274414 84.40631103515625 39.23965072631836 85.48295593261719 44.74148178100586 85.48295593261719 C 50.24331283569336 85.48295593261719 55.57844924926758 84.40631103515625 60.59868240356445 82.28292846679688 C 65.44966888427734 80.23114013671875 69.80714416503906 77.29297637939453 73.55006408691406 73.55006408691406 C 77.29297637939453 69.80714416503906 80.23114013671875 65.44966888427734 82.28292846679688 60.59868240356445 C 84.40631103515625 55.57844924926758 85.48295593261719 50.24331283569336 85.48295593261719 44.74148178100586 C 85.48295593261719 39.31609725952148 84.43917083740234 34.04643630981445 82.38059234619141 29.07891082763672 C 80.40402221679688 24.30926513671875 77.59697723388672 20.05301666259766 74.03688049316406 16.42787933349609 C 66.16957092285156 8.413650512695313 55.76559066772461 4.000007629394531 44.74148178100586 4.000007629394531 M 44.74148178100586 7.62939453125e-06 C 57.24475860595703 7.62939453125e-06 68.55015563964844 5.128776550292969 76.891357421875 13.62574005126953 C 84.59455871582031 21.46971130371094 89.48295593261719 32.53472900390625 89.48295593261719 44.74148178100586 C 89.48295593261719 69.45153045654297 69.45153045654297 89.48295593261719 44.74148178100586 89.48295593261719 C 20.03143310546875 89.48295593261719 7.62939453125e-06 69.45153045654297 7.62939453125e-06 44.74148178100586 C 7.62939453125e-06 20.03143310546875 20.03143310546875 7.62939453125e-06 44.74148178100586 7.62939453125e-06 Z" stroke="none" fill="#ecd82f"/>
          </g>
        </g>
        <g id="Group_3" data-name="Group 3" transform="translate(220.387 92.679)">
          <g id="Ellipse_1-3" data-name="Ellipse 1" transform="translate(-0.472 0.391)" fill="none" stroke="#ecd82f" stroke-width="4">
            <ellipse cx="55" cy="54.5" rx="55" ry="54.5" stroke="none"/>
            <ellipse cx="55" cy="54.5" rx="53" ry="52.5" fill="none"/>
          </g>
          <g id="Ellipse_2-3" data-name="Ellipse 2" transform="translate(20.528 20.391)" fill="none" stroke="#ecd82f" stroke-width="4">
            <circle cx="35" cy="35" r="35" stroke="none"/>
            <circle cx="35" cy="35" r="33" fill="none"/>
          </g>
          <g id="Path_28-3" data-name="Path 28" transform="translate(10.653 10.653)" fill="none">
            <path d="M44.741,0A44.741,44.741,0,1,1,0,44.741,44.786,44.786,0,0,1,44.741,0Z" stroke="none"/>
            <path d="M 44.74148178100586 4.000007629394531 C 39.23965072631836 4.000007629394531 33.90451431274414 5.076652526855469 28.88428115844727 7.200035095214844 C 24.03329467773438 9.251823425292969 19.67581939697266 12.18998718261719 15.93289947509766 15.93289947509766 C 12.18998718261719 19.67581939697266 9.251823425292969 24.03329467773438 7.200035095214844 28.88428115844727 C 5.076652526855469 33.90451431274414 4.000007629394531 39.23965072631836 4.000007629394531 44.74148178100586 C 4.000007629394531 50.24331283569336 5.076652526855469 55.57844924926758 7.200035095214844 60.59868240356445 C 9.251823425292969 65.44966888427734 12.18998718261719 69.80714416503906 15.93289947509766 73.55006408691406 C 19.67581939697266 77.29297637939453 24.03329467773438 80.23114013671875 28.88428115844727 82.28292846679688 C 33.90451431274414 84.40631103515625 39.23965072631836 85.48295593261719 44.74148178100586 85.48295593261719 C 50.24331283569336 85.48295593261719 55.57844924926758 84.40631103515625 60.59868240356445 82.28292846679688 C 65.44966888427734 80.23114013671875 69.80714416503906 77.29297637939453 73.55006408691406 73.55006408691406 C 77.29297637939453 69.80714416503906 80.23114013671875 65.44966888427734 82.28292846679688 60.59868240356445 C 84.40631103515625 55.57844924926758 85.48295593261719 50.24331283569336 85.48295593261719 44.74148178100586 C 85.48295593261719 39.31609725952148 84.43917083740234 34.04643630981445 82.38059234619141 29.07891082763672 C 80.40402221679688 24.30926513671875 77.59697723388672 20.05301666259766 74.03688049316406 16.42787933349609 C 66.16957092285156 8.413650512695313 55.76559066772461 4.000007629394531 44.74148178100586 4.000007629394531 M 44.74148178100586 7.62939453125e-06 C 57.24475860595703 7.62939453125e-06 68.55015563964844 5.128776550292969 76.891357421875 13.62574005126953 C 84.59455871582031 21.46971130371094 89.48295593261719 32.53472900390625 89.48295593261719 44.74148178100586 C 89.48295593261719 69.45153045654297 69.45153045654297 89.48295593261719 44.74148178100586 89.48295593261719 C 20.03143310546875 89.48295593261719 7.62939453125e-06 69.45153045654297 7.62939453125e-06 44.74148178100586 C 7.62939453125e-06 20.03143310546875 20.03143310546875 7.62939453125e-06 44.74148178100586 7.62939453125e-06 Z" stroke="none" fill="#ecd82f"/>
          </g>
        </g>
        <path id="Path_1" data-name="Path 1" d="M183.023-515.443c-1.278,2.45-.426,3.622,21.945,28.017,22.264,24.182,27.164,29.508,43.144,46.659,3.835,4.048,15.02,16.3,25.034,27.164,9.907,10.866,19.921,21.732,22.158,24.288,2.45,2.557,4.9,4.261,5.646,3.942.959-.32,1.172,0,.746.746-.426.639.533,2.344,2.344,3.835,1.7,1.385,2.344,2.237,1.491,1.811s1.065,2.024,4.368,5.433c3.2,3.409,7.776,8.309,10.12,10.866,3.622,3.942,4.794,4.581,7.883,4.261l3.515-.32-4.794-5.326c-2.557-2.983-9.694-10.866-15.766-17.577-11.611-12.89-15.553-17.257-26.1-28.762-3.515-3.835-10.227-11.292-14.914-16.512s-10.333-11.4-12.57-13.742a75.775,75.775,0,0,1-6.179-7.244c-1.172-1.6-2.663-2.77-3.2-2.344-.533.32-.852,0-.746-.852a.812.812,0,0,0-1.065-1.065c-.852.107-1.172-.213-.852-.746.426-.533-2.876-4.687-7.244-9.161s-7.883-8.416-7.99-8.629c-.107-1.385-15.553-17.257-16.3-16.831-.533.32-.746.107-.639-.533.426-1.6-25.034-29.934-26.951-29.934C185.153-518,183.875-516.828,183.023-515.443Z" transform="translate(-156.625 518)"/>
        <path id="Path_2" data-name="Path 2" d="M159.8-494.083c-2.77,3.089-2.131,4.687,3.835,9.587,3.089,2.45,7.67,6.5,10.333,9.055,2.663,2.45,9.161,8.309,14.381,13,5.326,4.687,9.8,8.735,10.12,9.055s5.539,5.113,11.718,10.546c6.179,5.539,14.7,13.209,18.962,17.044,4.368,3.835,8.309,6.924,8.842,6.711.639-.107.852.107.533.639-.639,1.065,7.883,8.416,9.161,7.883.533-.107.746.213.533.639-.213.852,4.474,5.22,18.429,17.684,5.326,4.687,24.927,22.371,25.567,23.01.32.32,2.876,2.557,5.752,5.113,4.261,3.622,5.966,4.474,9.481,4.474h4.368l-7.883-7.244c-4.261-3.941-8.2-7.031-8.735-6.818-.426.107-.746-.107-.639-.533.213-.533-2.024-2.983-5.007-5.646-2.876-2.663-8.1-7.457-11.611-10.653-3.409-3.2-6.818-6.392-7.457-6.924-5.752-5.113-26.1-23.649-32.065-29.3-4.048-3.835-12.251-11.292-18.11-16.512-5.859-5.326-13.849-12.677-17.79-16.405-4.474-4.155-7.563-6.392-8.416-5.859-.746.426-1.065.32-.639-.213.32-.533-2.131-3.622-5.433-6.924C180.356-480.127,162.673-496,162.034-496A6.791,6.791,0,0,0,159.8-494.083Z" transform="translate(-158.219 519.436)"/>
        <path id="Path_3" data-name="Path 3" d="M159.446-353.117c2.131,23.329,12.144,50.281,27.378,73.078,8.1,12.251,31,35.58,42.185,42.931l7.563,5.007h174.6l7.35-5.22a165.777,165.777,0,0,0,61.573-81.92c3.942-11.5,8.1-30.573,8.1-37.6V-361H158.7Z" transform="translate(-108.12 499.486)" fill="red"/>
        <path id="Path_4" data-name="Path 4" d="M231-223.815v11.185H406.77V-235H231Z" transform="translate(-103.401 507.71)"/>
      </g>
      <g id="g12" transform="translate(320.337 225.231)">
        <path id="path14" d="M33.416-1928.06a8.62,8.62,0,0,1-2.957-4.2,12.078,12.078,0,0,1,1.88-10.387,61.437,61.437,0,0,1,10.1-10.574s-2.253,2.309-1.58,3.7c1.685-.43,3.379-3.047,3.379-3.047a9.845,9.845,0,0,0,5.745-.146c2.982-1.037,9.561-3.006,9.561-3.006s-3.2-4.448-10.72-5.226c-1.313,1.126-3.055,2.018-4.189,3.33a3.673,3.673,0,0,0-1.823-.373c-4.837-.567-2.714,3.152-1.248,3.6.219.065-1.937,3.792-4.367.551a1.6,1.6,0,0,1-2.925-.64c-1.847,1.58-2.876-.786-2.893-1.58-.251-1.361,1-4.7,2.9-5.008a1.1,1.1,0,0,1,1.224.786,1.5,1.5,0,0,1,2.569.5c1.386-1.483,2.447-.98,2.8-.405A8.993,8.993,0,0,0,41.9-1962.4s-15.314-.672-20.832-12.105c-.681,1.466.275,6.069.016,5.631s-1.807-5.193-1.807-5.193-.575,1.32-3.314,2.909c3.46-3.8.284-6.75,1.953-8.727-2.123.486-4.894,4.481-4.894,4.481a20.125,20.125,0,0,1,4.335-7.714c-2.447.965-5.275-.494-8.475-1.474,4.529.033,6.053-1.653,7.236-3.014-1.134-.024-2.755.5-4.61-.542,4.732-.867,7.673-2.674,7.187-2.682s-3.282-.681-3.282-.681S2.885-1986.691.381-1978.6c1.078-8.451,13.061-13.661,13.061-13.661a9.291,9.291,0,0,1-2.633-1.053c7.122.315,10.59-2.245,10.59-2.245s-5.137,1.8-7.138,1.159c2.18-1.15,6.506-2.707,5.34-2.739-2.722.965-3.257-1.968-8.394-1.029,4.732-2.52,6.458-.47,8.475-2.074.51-.527,2.042-.4,2.042-.4a31.788,31.788,0,0,1-3.379-1.759c-10.493,1.613-16.886-5.128-16.87-5.615s4.1,4.732,13.993,3.695a15.657,15.657,0,0,1-6.393-8.491c5.064,10.177,13.653,8.191,13.653,8.191s.583-.494-4.862-1.58c5.445-.835,6.547-.227,9.829-.544-2.147-1.588-11.668-3.313-16.051-14.058.057-.446,2.739,5.461,9.739,8.427a12.154,12.154,0,0,1-1.3-6.587s1.272,7.284,8.338,10.242c4.862,2.381,6.442,2.738,6.6,1.847.251-1.11-8.67-1.434-4.691-11.238-1.588,6.717,3.573,8.369,7.535,8.823,2.617.608,2.674,1.921,2.966,2.342.454,1.094-.308,1.67,1.564,2.083.438-1.111-.98-1.75-.98-1.75a2.828,2.828,0,0,1,2.722,3.589c4.2-4.692,7.535.341,7.535.341a1.734,1.734,0,0,0,1.078-1.881c-1.134-2.763-6.976-.616-8.192-5.031-.243-2.479,3.16-2.869,2.009-5.275-1.5-4.344-17.3-5-19.446-5.575-1.791-.478-5.121-1.353-10.039-6.9,3.452,3.629,7.138,5.875,11.117,6.353,7.9,1.3,16.894,1.117,19.244,5.437,1.977,3.281-2.3,4.067-1.4,6.368,2.447,2.723,5.931,1.3,7.714,3.282,1.912,2.431-1.483,4.869-1.483,4.869l-1.248,1s-.324,3.371-1.41,3.581c-.17-.316.041-2.86-.178-2.649s-.883.567-.891.785-.681,2.277-1.078,1.993a2.853,2.853,0,0,0-.17-1.166s-2.86,1.725-2.431,1.742,5.007-.4,9.156-.26a12.5,12.5,0,0,0,7.957-2.406,12.491,12.491,0,0,0-4.2-9.553,12.2,12.2,0,0,1,4.562,9.27c3.273-2.828,3.038-8.905,3.038-8.905s.721,6.125-3.038,9.432c-.292,4.894-5.567,4.522-6.15,4.5-1.718.073-4.205-.826-6.685-1.038a14.945,14.945,0,0,0-2.99.042,15.664,15.664,0,0,0-2.9.753s.964.292,3.006,1.109c1.126-3.232.8.2.8.2l.778.283s.729-1.912.859-2.163c.478.114.381,2.529.211,2.739s3.136.6,4.473.251a5.19,5.19,0,0,1-2.941,1.7s1.6.065,1.7.041c-.105.243-1.337.754-3.322,1,2,3.67-1.766,4.675-2.625,7.713-.519,2.01.5,3.743.186,3.517-3.549-2.771-2.463-6.207-2.463-6.207s-5.4,5.736-9.278,4.626a9.155,9.155,0,0,0,4.132-2.528,12.583,12.583,0,0,0,2.269-3.971c-2.277.608-2.974,2.747-3.711,4.279a5.321,5.321,0,0,1,.908-4.837c-1.475-.235-6.458,5.533-9.2,5.38,1.629-.422,1.41-2.885,3.922-4.919-1.021.77-4.327,1.54-6.579,1.273a15.69,15.69,0,0,0,4.3-3.007,10.618,10.618,0,0,0-4.9,1.468c-.1-.641,3.282-2.691,3.282-2.691a4.31,4.31,0,0,0-4.57,2.95c-.989,3.857,3.922,4.53,4.448,4.538-.332.226-1.864.648-4.578.276,4.578,3.338,9.942.283,9.942.283a9.714,9.714,0,0,1-6.66,4.148c3.905,1.458,7.843-1.272,8.086-1.329-.51,1.71-3.314,3.695-3.419,3.9a13.935,13.935,0,0,0,8.953-3.623s-.1,1.969-2.86,5.786c.551-.365,4.74-3.606,5.1-6.718.567.251,1.094,2.14-.267,4.14.275-.154,2.609-1.264,2.957-1.993,1.394-2.261,1.248-3.014,5.1-4.951a15.023,15.023,0,0,0-3.468,4.692A21.79,21.79,0,0,1,52.3-1979.9c-1.467,1.611-1.142,1.588-2.8,4.075.6-.866,3.654-2.228,6.053-3.71a24.289,24.289,0,0,0,4.011-3.347c-.948,2.593-5.477,5.72-5.931,6.49a24.908,24.908,0,0,0,5.842-4.837c-.032,1.2-1,3.808-1.645,3.97a3.875,3.875,0,0,0,4.019-2.537,4.724,4.724,0,0,1-2.431,5.226c.219-.049,2.552.365,3.671-1.143.032,2.585-3.533,4.416-4.132,5.041a10.311,10.311,0,0,1,5.129-.867c-1.645,1.013-3.387,2.293-5.129,3.306a11.237,11.237,0,0,1,7.479.64,9.637,9.637,0,0,0-4.951,1.507,9.95,9.95,0,0,1,8.443,2.285,10.628,10.628,0,0,0-5.1-.364c2.39.891,5.291,2.2,5.291,2.2a6.212,6.212,0,0,0,1.394-2.115c-.365-1.928-2.447-3.29-2.18-3.168s3.4,2.577,2.982,1.92c-1.167-1.782-3.055-2.642-5.007-5.283a21.245,21.245,0,0,0,4.829,2.52c-1.783-2.155-5.4-2.082-8.573-7.657A13.692,13.692,0,0,0,70-1971.531c-6.75-4.221-7.13-7.584-7.13-7.584a10.886,10.886,0,0,0,5.007,4.092c-3.695-2.31-4.61-7.374-4.61-7.374s2.034,3.59,2.763,3.542c-2.633-2.917-.972-8.184-.972-8.184s1.491,5.291,1.458,4.529a8.635,8.635,0,0,1,1.037-4.626c.162.081-.138,1.945.235,2.674.332-.478.835-2.965,5.088-4.57a23,23,0,0,0,8.71-4.8c.859-1.134.883-4.757.883-4.757s.883,2.844.016,4.813c-2.406,4.076-6.782,4.7-9.8,6.863-.405.292-3.4,2.407-3.589,5.137a11.5,11.5,0,0,1,2.147-3.1,13.087,13.087,0,0,0-1.07,6.5,22.324,22.324,0,0,1,1.134-3.743,34.2,34.2,0,0,1,.2,6.854c1.029-.948.77-4.667.77-4.667a25.224,25.224,0,0,1,1.07,8.662c1.1-1.338,1.045-6.142,1.045-6.142s1.126,3.492-.049,9.407c2.107-3.306,1.8-7.617,1.9-7.131.673,6.79-1.313,10.4-1.313,10.4s1.426-1.005,3.695-6.822c-2.107,9.366-5.388,11.408-5.388,11.408a23.332,23.332,0,0,1,2.334,1.572c-4.343-.981-6.79-.251-7.009-.13,5.17,1.053,9.78,3.76,7.284,3.225a8.479,8.479,0,0,0-5.17.972,36.148,36.148,0,0,1,1.823,5.639,19.684,19.684,0,0,1,.413,6.709,22.885,22.885,0,0,1,3.549-3.849s5.323,1.094,9.788,1.515c-.332.2-1.4.826-1.3,1.734,2.933-2.066,5.032-1.442,5.032-1.442s-4.781,1.3-6.19,5.25c.77-.413,4.764-2.69,6.944-.867a8.669,8.669,0,0,0-6.92,2.674c-1.685,3.006-3.33,3.719-3.33,3.719s1.28.438,4.7-.972a9.413,9.413,0,0,1-7.284,3.33,11.586,11.586,0,0,0,2.9.738c-4.035,1.4-4.586,2.439-4.586,2.439a6.267,6.267,0,0,0,1.977-.729c-1.191,1.848-5.558,7.26-5.664,8.994.081,2.123,4.918,2.723,4.918,2.723a5.57,5.57,0,0,1,4.2,4.383c-.267.041-.51-2.326-6-2.925,5.1,4.068,1.232,7.843,1.232,7.843s2.722-2.763-4.732-7.527c1.377,6.142-1.588,8.3-2.22,8.913.478-1.985.948-1.937-.859-9.318-.113.267-4.043.267-3.735,7.689-3.4-7.714,1.256-9.464,1.256-9.464s-3.8-.292-4.748,2.974c.389-4.91,5.2-4.991,6.028-5.339,2.05-1.2,2.058-9.3,3.492-12.843A16.423,16.423,0,0,1,64.8-1925.3s.178-1.791-.041-1.58c-10.112,10.388-25.58,3.792-27.1,2.552-1.24.624-1.928,3.468-.235,3.541-.267.154-5.4.543-6.045,2.99,6.985,3.8-2.155,7.123-2.155,7.123s3.525-2.342.373-4.246c-4.327,2.326-5.907,4.7-2.455,7.309-.608-.332-8.192-1.839-2.56-6.855-.494.365-7.26,1.523-3.824,7.422-1.28-.608-7.025-6.563,2.56-8.994-1.791-1.094-6.036-.089-6.361,5.016-1.475-5.712,3.97-7.1,5.121-7.244-.7-.2-3.047-1.134-5.591,1.516,3.484-6.191,9.569-1.71,10.153-3.2a11.539,11.539,0,0,0,3.217-7.592s.762,1.151.664,4.1c.421-.526,1.183-1.653,1.637-2.325.194-.365,6.109-6.766,7.39-8.435.7-.916-2.293,1.929-1.985,1.653l-4.14,4.489" transform="translate(-0.381 2027.342)" fill-rule="evenodd"/>
        <path id="path16" d="M472.72-1129.94c-2.658.049-15.168,3.995-17.145,4.935-1.3.688-7.479,3.7-5.972,8.792.6-.478-.049-3.727,3.63-5.988-1.661,2.107-1.937,6.036-1.928,5.6,1.321-3.517,3.063-4.521,3.063-4.521s-1.386,2.82-.859,3.971c1.669-2.666,4.311-3.266,5.267-6.417-.065.292.891,2.674-2.423,5.591.989-.883,1.937-.389,3.662-3-.608,3.282-3.557,6.782-3.557,6.782a16.563,16.563,0,0,0,4.951-7.56c1.029.583-.446,3.484-.211,3.492a12.129,12.129,0,0,0,3.881-6.8c1.183,4.983-3.346,9.7-3.022,9.472.478.77,3.128-3.411,3.128-3.411s-1.313,3.346-.883,3.444c.13-.316,3.492-5.064,4.537-5.129-1.621,2.755-1.775,6.426-1.507,6.288s8.605-4.886,5.388-15.541h0" transform="translate(-411.472 1205.683)" fill="red" fill-rule="evenodd"/>
        <path id="path18" d="M135.261-1288.469a1.652,1.652,0,0,0,2.293-.438,4.082,4.082,0,0,1,2.966,1.077c1.377,1.248.818,3.184,1.928,4.092a2.387,2.387,0,0,1,.219-1.864s.251,2.22,1.207,2.471a7.982,7.982,0,0,1-.389-2.447s1.394,2.779,2.933,2.48c-2.05-1.693-2.1-2.885-2.1-2.885s8.184,3.784,8.945,7.227a12.334,12.334,0,0,0-.567-3.241,6.731,6.731,0,0,1,3.111,3.136c-.016-.34.073-1.556-1.4-4.7.113,0,2.285,2.5,3.679,1.961a9.1,9.1,0,0,1-1.961-3.816s-1.191.235-1.88-1.515c-.7-2.026.551-4.861,1.847-5.891,1.2-.948,1.7-.883,2.577-.13a1.167,1.167,0,0,1,1.572-.081l1.264-2.107a24.868,24.868,0,0,1-7.8-2.706c-1.159,1.021-2.269,5.664-2.269,5.664s-1.191-.1-1.8-.219c.267-.559.154-1.613.373-2.366a3.657,3.657,0,0,0-1.75,2.042l-.81-.113s1.475-2.472-.243-4.068c.235,1.507-.146,2.35-.835,2.528a2.377,2.377,0,0,0-1.645,1.094l-5.542-.834a14.2,14.2,0,0,0-1.45-1.126l-2.471,6.774" transform="translate(-123.877 1359.415)" fill-rule="evenodd"/>
        <path id="path20" d="M620.924-1672.826a13.529,13.529,0,0,0,8.824-2.876,3.418,3.418,0,0,1-2.317,2.893c-2.4,1.077-5.1.227-6.506-.017h0" transform="translate(-568.548 1705.382)" fill="#fff" fill-rule="evenodd"/>
        <path id="path22" d="M570.985-1310.707c2.277-2.406,3.176-3.168,3.176-3.168a11.531,11.531,0,0,1-3.484,4.319,28.364,28.364,0,0,1-4.432,2.8s3.573-2.366,4.74-3.946h0" transform="translate(-518.48 1374.094)" fill="#fff" fill-rule="evenodd"/>
        <path id="path24" d="M398.153-1738.986c.13.389-1.321,1.231-2.1,1.158s-.794-2.115-3.047-2.147c-1.839.187-3.2,2.61-4.14,3.136-.065-1.175,1.256-3.314,3.768-3.9a3.583,3.583,0,0,1,3.654,1.579c.251.228,1.734-.2,1.864.179h0" transform="translate(-356.076 1765.004)" fill="#fff" fill-rule="evenodd"/>
        <path id="path26" d="M419.373-1723.23c.964.025,1.726.632,1.71,1.362a1.584,1.584,0,0,1-1.783,1.264c-.964-.025-1.734-.632-1.71-1.353s.818-1.3,1.783-1.273h0" transform="translate(-382.376 1748.899)" fill="#fff" fill-rule="evenodd"/>
        <path id="path28" d="M425.081-1713.146a.335.335,0,0,1,.365.316.339.339,0,0,1-.381.3.345.345,0,0,1-.365-.316.343.343,0,0,1,.381-.3h0" transform="translate(-388.886 1739.666)" fill="#ed1c24" fill-rule="evenodd"/>
        <path id="path30" d="M372.367-1670.193a4.584,4.584,0,0,1-.219-3.59,4.319,4.319,0,0,0-.559,4.829,4.069,4.069,0,0,0,5.242,2.278,3.452,3.452,0,0,0,1.718-1.921,3.211,3.211,0,0,1-.948.681,4.061,4.061,0,0,1-5.234-2.276h0" transform="translate(-339.818 1703.624)" fill="#fff" fill-rule="evenodd"/>
        <path id="path32" d="M467.745-1204.34s-2.455.024-2.731,1.272c-.251,1.126,1.313,2.131,1.937,2.342.429.138,31.373,5.494,32.168,5.745,1.418.462,2.018,3.517,2.65,4.019s32.686,6.077,33.1,5.939,3.1-14.471,2.1-14.974c-1.321-.276-31.479-3.346-32.378-3.047s-3.152,3.087-4.416,2.909c-1.361-.194-.737-.194-32.427-4.205h0" transform="translate(-425.773 1273.804)" fill="#231f20" fill-rule="evenodd"/>
        <path id="path34" d="M467.745-1204.34s-2.455.024-2.731,1.272c-.251,1.126,1.313,2.131,1.937,2.342.429.138,31.373,5.494,32.168,5.745,1.418.462,2.018,3.517,2.65,4.019s32.686,6.077,33.1,5.939,3.1-14.471,2.1-14.974c-1.321-.276-31.479-3.346-32.378-3.047s-3.152,3.087-4.416,2.909C498.811-1200.329,499.435-1200.329,467.745-1204.34Z" transform="translate(-425.773 1273.804)" fill="none" stroke="#fff" stroke-linecap="square" stroke-miterlimit="2.613" stroke-width="2.688"/>
        <path id="path36" d="M151.2-1243.477c-.575.2-.721.357-.77.818.2,1.385.875,2.066,1.394,2.188.17.138,16.213,2.844,16.213,2.844a4.44,4.44,0,0,1,.826-3.719c-3.1,0-17.55-2.269-17.664-2.131h0" transform="translate(-137.765 1309.643)" fill="#231f20" fill-rule="evenodd"/>
        <path id="path38" d="M151.2-1243.477c-.575.2-.721.357-.77.818.2,1.385.875,2.066,1.394,2.188.17.138,16.213,2.844,16.213,2.844a4.44,4.44,0,0,1,.826-3.719C165.767-1241.346,151.312-1243.615,151.2-1243.477Z" transform="translate(-137.765 1309.643)" fill="none" stroke="#fff" stroke-linecap="square" stroke-miterlimit="2.613" stroke-width="2.688"/>
        <path id="path40" d="M87.85-1296.628a2.575,2.575,0,0,0-1.434,1.491,2.736,2.736,0,0,0,.081,2.99,1.908,1.908,0,0,0-.429,2.674,1.593,1.593,0,0,0,.122,2.366,4.719,4.719,0,0,0,5.915.494c.583-.421.972-1.288.381-1.807a1.245,1.245,0,0,0,.081-1.92c.81-.478,1-1.985.016-2.269-.154-.032.446-.049.98-1.094.648-1.6-.729-1.888-.729-1.888s-4.173-1.418-4.983-1.037h0" transform="translate(-78.402 1358.362)" fill-rule="evenodd"/>
        <path id="path42" d="M171.03-1240.321c.259-.494.575-.875-.057-1.458.81-.478.64-1.191.551-1.92l-.494,3.379" transform="translate(-156.574 1309.841)" fill="#ed1c24" fill-rule="evenodd"/>
        <path id="path44" d="M171.03-1240.321c.259-.494.575-.875-.057-1.458.81-.478.64-1.191.551-1.92" transform="translate(-156.574 1309.841)" fill="none" stroke="#fff" stroke-linecap="square" stroke-miterlimit="2.613" stroke-width="2.666"/>
        <path id="path46" d="M424.161-1219.028s-1.9,2.739-.713,4.845a2.95,2.95,0,0,1-.835-2.439,4.21,4.21,0,0,1,1.548-2.406h0" transform="translate(-386.97 1287.252)" fill="#fff" fill-rule="evenodd"/>
        <path id="path48" d="M391.136-1225.748s-1.9,2.747-.713,4.845a2.9,2.9,0,0,1-.835-2.431,4.2,4.2,0,0,1,1.548-2.415h0" transform="translate(-356.732 1293.405)" fill="#fff" fill-rule="evenodd"/>
        <path id="path50" d="M906.619-1169.776a17.626,17.626,0,0,1,2.771-3.346c.98-.583,29.194,2.714,28.675,2.658,0,0-26.7-2.333-27.687-1.872a38.285,38.285,0,0,0-3.76,2.56h0" transform="translate(-830.13 1245.285)" fill="#fff" fill-rule="evenodd"/>
        <path id="path52" d="M945.657-1059.765s-.575,3.954-1.434,4.813c-.737.745-30.6-5.388-30.6-5.388s28.521,3.93,29.575,3.687,2.455-3.111,2.455-3.111h0" transform="translate(-835.481 1143.023)" fill="#fff" fill-rule="evenodd"/>
        <path id="path54" d="M134.114-1301.774c-.113-.081-2.569-3.176-3.273-4.035a4.545,4.545,0,0,0-2.309-1.556c-1.118-.032-2.8.438-2.552,1.191s4.367,3.857,4.367,3.857l3.768.543" transform="translate(-115.357 1368.134)" fill-rule="evenodd"/>
        <path id="path56" d="M100.221-1210.964s2.739,1.9,4.845.713a2.95,2.95,0,0,1-2.439.835c-1.24-.057-2.407-1.548-2.407-1.548h0" transform="translate(-91.794 1279.869)" fill="#fff" fill-rule="evenodd"/>
        <path id="path58" d="M100.893-1238.9s2.747,1.9,4.845.713a2.9,2.9,0,0,1-2.431.835,4.2,4.2,0,0,1-2.415-1.547h0" transform="translate(-92.409 1305.447)" fill="#fff" fill-rule="evenodd"/>
        <path id="path60" d="M105.4-1263.86s2.747,1.9,4.845.721a2.945,2.945,0,0,1-2.431.834,4.239,4.239,0,0,1-2.415-1.556h0" transform="translate(-96.541 1328.3)" fill="#fff" fill-rule="evenodd"/>
        <path id="Path_21" data-name="Path 21" d="M138.49,127.016l.945.087,10.329.954,8.756.809,9.509.879-.352,1.585-6.608-.867-.627-.082-10.662-1.4-3.763-.494-7.526-.988" transform="translate(-56.609 -51.831)" fill="#f7f7f7" stroke="#fff" stroke-width="1"/>
        <path id="Path_24" data-name="Path 24" d="M138.49,127.016l.945.087,10.329.954,8.756.809,9.509.879-.352,1.585-6.608-.867-.627-.082-10.662-1.4-3.763-.494-7.526-.988" transform="translate(-56.609 -52.313)" fill="#f7f7f7" stroke="#fff" stroke-width="1"/>
        <path id="Path_22" data-name="Path 22" d="M138.49,127.016l.945.087,10.329.954,8.756.809,9.509.879-.352,1.585-6.608-.867-.627-.082-10.662-1.4-3.763-.494-7.526-.988" transform="translate(-57.193 -48.228)" fill="#f7f7f7" stroke="#fff" stroke-width="1"/>
        <path id="Path_23" data-name="Path 23" d="M138.49,127.016l.945.087,10.329.954,8.756.809,9.509.879-.352,1.585-6.608-.867-.627-.082-10.662-1.4-3.763-.494-7.526-.988" transform="translate(-57.193 -47.061)" fill="#f7f7f7" stroke="#fff" stroke-width="1"/>
      </g>
      <text id="餃子" transform="translate(480 263)" font-size="26" font-family="ReggaeOne-Regular, Reggae One"><tspan x="-26" y="0">餃子</tspan></text>
    </g>
  </g>
</svg>
